<?xml version="1.0" encoding="iso-8859-1"?>
<!-- Generator: Adobe Illustrator 19.0.0, SVG Export Plug-In . SVG Version: 6.00 Build 0)  -->
<svg version="1.1" id="Layer_1" xmlns="http://www.w3.org/2000/svg" xmlns:xlink="http://www.w3.org/1999/xlink" x="0px" y="0px"
	 viewBox="0 0 512 512" style="enable-background:new 0 0 512 512;" xml:space="preserve">
<g>
	<g>
		<path d="M414.261,166.957H372.87V116.87c0-46.08-37.398-83.478-83.478-83.478c-5.231,0-10.461,0.557-15.804,1.558
			C258.114,13.134,233.294,0,205.913,0c-27.381,0-52.201,13.134-67.674,34.95c-5.343-1.002-10.574-1.558-15.804-1.558
			c-46.08,0-83.478,37.398-83.478,83.478v328.348c0,36.842,29.94,66.783,66.783,66.783h200.348
			c36.843,0,66.783-29.941,66.783-66.783h41.392c32.413,0,58.782-26.369,58.782-58.782V225.74
			C473.043,193.326,446.674,166.957,414.261,166.957z M139.13,428.522c0,9.223-7.479,16.696-16.696,16.696
			c-9.217,0-16.696-7.473-16.696-16.696V217.043c0-9.223,7.479-16.696,16.696-16.696c9.217,0,16.696,7.473,16.696,16.696V428.522z
			 M222.609,428.522c0,9.223-7.479,16.696-16.696,16.696c-9.217,0-16.696-7.473-16.696-16.696V217.043
			c0-9.223,7.479-16.696,16.696-16.696c9.217,0,16.696,7.473,16.696,16.696V428.522z M306.087,428.522
			c0,9.238-7.456,16.696-16.696,16.696s-16.696-7.457-16.696-16.696V224.723c9.795,5.788,21.148,9.016,33.391,9.016V428.522z
			 M339.478,166.957c0,18.365-15.026,33.391-33.391,33.391c-18.365,0-33.391-15.026-33.391-33.391v-16.696
			c0-9.238-7.456-16.696-16.696-16.696H72.348V116.87c0-33.28,32.946-59.77,67.674-46.637c8.125,3.005,17.251-0.557,20.924-8.348
			c8.57-17.586,25.711-28.494,44.967-28.494c19.256,0,36.397,10.908,44.967,28.494c3.673,7.791,12.799,11.353,20.924,8.348
			c34.839-13.134,67.674,13.357,67.674,46.637V166.957z M439.652,386.435c0,14-11.391,25.391-25.391,25.391H372.87V200.348h41.392
			c14,0,25.391,11.391,25.391,25.392V386.435z"/>
	</g>
</g>
</svg>
