<?xml version="1.0" encoding="iso-8859-1"?>
<!-- Generator: Adobe Illustrator 19.0.0, SVG Export Plug-In . SVG Version: 6.00 Build 0)  -->
<svg version="1.1" id="Capa_1" xmlns="http://www.w3.org/2000/svg" xmlns:xlink="http://www.w3.org/1999/xlink" x="0px" y="0px"
	 viewBox="0 0 512 512" style="enable-background:new 0 0 512 512;" xml:space="preserve">
<path style="fill:#FF6243;" d="M367.007,25.773c34.365,34.365,34.365,90.28,0,124.645c-4.955,4.955-12.988,4.955-17.943,0
	L242.363,43.716c-4.955-4.955-4.955-12.988,0-17.943C276.728-8.591,332.643-8.591,367.007,25.773z"/>
<path style="fill:#FF3501;" d="M391.93,75.902c-2.542-18.35-10.844-36.049-24.923-50.129c-34.365-34.365-90.279-34.365-124.645,0
	c-4.955,4.955-4.955,12.988,0,17.943l31.192,31.192C307.238,44.843,358.637,45.178,391.93,75.902z"/>
<path style="fill:#FF9478;" d="M356.121,36.02c29.091,29.091,29.091,76.256,0,105.347c-2.739,2.739-5.637,5.219-8.666,7.442
	L243.332,44.686c2.223-3.029,4.703-5.928,7.442-8.666C279.865,6.929,327.03,6.929,356.121,36.02z"/>
<path style="fill:#FF7956;" d="M376.72,75.263l-81.32,21.49l21.479-81.332c14.375,2.622,28.129,9.485,39.243,20.599
	C367.235,47.134,374.098,60.887,376.72,75.263z"/>
<path style="fill:#D1E7F8;" d="M313.357,83.33c-3.382-3.517-8.052-5.505-12.932-5.505H137.161c-4.88,0-9.548,1.987-12.932,5.505
	c-3.382,3.517-5.187,8.26-4.997,13.135l15.549,398.293c0.376,9.63,8.291,17.242,17.927,17.242h132.166
	c9.636,0,17.551-7.612,17.927-17.242l15.551-398.293C318.544,91.588,316.74,86.846,313.357,83.33z"/>
<path style="fill:#B9D8F4;" d="M194.073,494.758L178.523,96.465c-0.19-4.877,1.613-9.619,4.997-13.135
	c3.382-3.517,8.052-5.505,12.932-5.505h-59.29c-4.88,0-9.548,1.987-12.932,5.505c-3.382,3.517-5.187,8.26-4.997,13.135
	l15.549,398.293c0.376,9.63,8.291,17.242,17.927,17.242H212C202.364,512,194.449,504.388,194.073,494.758z"/>
<path style="fill:#FFFFFF;" d="M275.581,460.549c-1.69-1.756-4.022-2.75-6.46-2.75H168.466c-2.438,0-4.77,0.993-6.46,2.75
	c-1.69,1.756-2.591,4.126-2.495,6.562l0.396,10.153c0.188,4.81,4.142,8.612,8.955,8.612h99.862c4.814,0,8.768-3.802,8.955-8.612
	l0.396-10.153C278.172,464.676,277.27,462.307,275.581,460.549z"/>
<path style="fill:#D1E7F8;" d="M168.466,457.8c-2.438,0-4.77,0.993-6.46,2.75c-1.69,1.758-2.591,4.126-2.495,6.562l0.396,10.153
	c0.188,4.81,4.142,8.612,8.955,8.612h24.863L192.63,457.8H168.466z"/>
<path style="fill:#FFA733;" d="M288.315,139.939c-2.434-2.531-5.793-3.96-9.303-3.96H158.575c-3.511,0-6.869,1.429-9.303,3.96
	c-2.434,2.53-3.731,5.942-3.594,9.45l10.537,269.884c0.271,6.928,5.965,12.404,12.897,12.404h99.364
	c6.933,0,12.627-5.476,12.897-12.404l10.537-269.884C292.046,145.881,290.749,142.47,288.315,139.939z"/>
<path style="fill:#EE8700;" d="M207.979,419.273l-10.537-269.884c-0.137-3.508,1.161-6.919,3.594-9.45
	c2.434-2.531,5.793-3.96,9.303-3.96h-51.764c-3.51,0-6.869,1.429-9.303,3.96c-2.434,2.53-3.731,5.942-3.594,9.45l10.537,269.884
	c0.271,6.928,5.965,12.404,12.897,12.404h51.764C213.943,431.677,208.25,426.2,207.979,419.273z"/>
<path style="fill:#806749;" d="M204.5,121.637c-4.118-1.309-7.177-4.685-6.509-8.952l0,0c0.049-0.321,4.695-32.305-16.199-51.535
	c-3.185-2.931-3.39-7.889-0.459-11.074c2.932-3.184,7.888-3.39,11.074-0.459c27.162,25.001,21.328,63.87,21.066,65.514
	C212.858,118.987,209.738,123.301,204.5,121.637z"/>
<circle style="fill:#FF0C38;" cx="205.73" cy="138.449" r="32.914"/>
<path style="fill:#D80027;" d="M199.457,138.452c0-13.435,8.055-24.984,19.595-30.098c-4.073-1.806-8.577-2.816-13.319-2.816
	c-18.178,0-32.914,14.736-32.914,32.914s14.736,32.914,32.914,32.914c4.743,0,9.246-1.01,13.319-2.816
	C207.511,163.436,199.457,151.888,199.457,138.452z"/>
<path style="fill:#FFDAAA;" d="M356.121,36.02c-29.091-29.091-76.256-29.091-105.347,0c-2.739,2.739-5.219,5.637-7.442,8.666
	l6.957,6.957c11.7-15.7,30.409-25.87,51.494-25.87c35.446,0,64.181,28.735,64.181,64.181c0,21.085-10.169,39.794-25.87,51.494
	l7.36,7.36c3.029-2.222,5.928-4.703,8.666-7.442C385.212,112.275,385.212,65.111,356.121,36.02z"/>
<path style="fill:#FFC477;" d="M204.756,375.398l-21.901-21.901c-7.721-7.721-7.721-20.356,0-28.076l21.901-21.901
	c7.721-7.721,20.356-7.721,28.076,0l21.901,21.901c7.721,7.721,7.721,20.356,0,28.076l-21.901,21.901
	C225.111,383.119,212.476,383.119,204.756,375.398z"/>
<g>
	<path style="fill:#EE8700;" d="M259.349,179.859c-4.328,0-7.694-3.812-7.525-8.137l0.184-4.703c0.169-4.326,3.82-7.686,8.137-7.525
		c4.325,0.169,7.694,3.812,7.525,8.137l-0.184,4.703C267.321,176.555,265.466,179.859,259.349,179.859z"/>
	<path style="fill:#EE8700;" d="M257.647,223.438c-4.328,0-7.694-3.812-7.525-8.137l0.799-20.469
		c0.169-4.325,3.807-7.685,8.137-7.524c4.325,0.169,7.694,3.812,7.524,8.137l-0.799,20.469
		C265.619,220.134,263.724,223.438,257.647,223.438z"/>
</g>
<path style="fill:#FFDAAA;" d="M214.79,338.893l-21.901-21.901c-7.721-7.721-7.721-20.356,0-28.076l21.901-21.901
	c7.721-7.721,20.356-7.721,28.076,0l21.901,21.901c7.721,7.721,7.721,20.356,0,28.076l-21.901,21.901
	C235.145,346.615,222.512,346.615,214.79,338.893z"/>
<path style="fill:#FFFFFF;" d="M204.756,291.939l-21.901-21.901c-7.721-7.721-7.721-20.356,0-28.076l21.901-21.901
	c7.721-7.721,20.356-7.721,28.076,0l21.901,21.901c7.721,7.721,7.721,20.356,0,28.076l-21.901,21.901
	C225.111,299.66,212.476,299.66,204.756,291.939z"/>
<g>
</g>
<g>
</g>
<g>
</g>
<g>
</g>
<g>
</g>
<g>
</g>
<g>
</g>
<g>
</g>
<g>
</g>
<g>
</g>
<g>
</g>
<g>
</g>
<g>
</g>
<g>
</g>
<g>
</g>
</svg>
