<svg id="Capa_1" enable-background="new 0 0 512 512" height="512" viewBox="0 0 512 512" width="512" xmlns="http://www.w3.org/2000/svg"><path d="m185.667 256c0 31.951 1.729 63.052 4.302 91.667h132.062c2.573-28.616 4.302-59.716 4.302-91.667s-1.729-63.051-4.302-91.667h-132.062c-2.573 28.615-4.302 59.716-4.302 91.667z"/><path d="m171.62 441.667h-95.89c14.599 37.936 27.935 61.638 28.551 62.725l4.309 7.608h77.154l-2.728-11.552c-.48-2.014-5.667-24.047-11.396-58.781z"/><path d="m340.38 70.333h95.889c-14.599-37.936-27.935-61.638-28.551-62.725l-4.308-7.608h-76.663l2.305 11.834c.8 3.391 5.813 25.062 11.328 58.499z"/><path d="m159.785 347.667c-2.478-28.568-4.118-59.593-4.118-91.667 0-32.075 1.642-63.096 4.12-91.667h-111.714c-5.768 28.318-9.74 59.493-9.74 91.667s3.972 63.348 9.74 91.667z"/><path d="m299.788 493.552c.113-.476 4.731-20.129 10.084-51.885h-107.743c5.351 31.748 9.966 51.392 10.077 51.856l4.363 18.477h78.861z"/><path d="m212.205 18.479c-.11.463-4.726 20.106-10.077 51.854h107.743c-5.351-31.748-9.967-51.392-10.077-51.856l-.132-.61-3.479-17.867h-80.372z"/><path d="m55.066 377.667c3.189 12.178 6.594 23.574 9.998 34h381.872c3.404-10.426 6.809-21.822 9.998-34z"/><path d="m352.213 164.333c2.478 28.57 4.12 59.591 4.12 91.667 0 32.074-1.64 63.098-4.118 91.667h111.711c5.768-28.319 9.74-59.493 9.74-91.667 0-32.173-3.972-63.348-9.74-91.667z"/><path d="m171.62 70.333c5.515-33.433 10.527-55.102 11.329-58.498l2.304-11.835h-76.663l-4.309 7.608c-.616 1.087-13.952 24.789-28.551 62.726h95.89z"/><path d="m456.935 134.333c-3.189-12.178-6.594-23.574-9.998-34h-381.873c-3.404 10.426-6.809 21.822-9.998 34z"/><path d="m340.38 441.667c-5.731 34.742-10.92 56.785-11.403 58.813l-2.721 11.52h77.154l4.309-7.608c.616-1.087 13.952-24.789 28.552-62.725z"/></svg>